# xmcd CD database file
# Copyright (C) 1996 Ti Kan
#
# Track frame offsets:
#  150
#  6347
#  14495
#  27782
#  34955
#  53297
#  76175
#  87350
#  96970
#  111390
#  116990
#  127390
#  143525
#  158355
#  172362
#  187902
#
# Disc length: 2686 seconds
#
# Revision: 2
# Processed by: cddbd v1.4PL0 Copyright (c) Steve Scherf et al.
# Submitted via: Gronk 1.4
#
DISCID=d00a7c10
DTITLE=Skip James - She Lyin'
DYEAR=1900
DGENRE=blues
TTITLE0=All Night Long
TTITLE1=Broke and Hungry
TTITLE2=I'm So Glad
TTITLE3=Bad Whiskey
TTITLE4=Cypress Grove Blues
TTITLE5=Catfish
TTITLE6=Goin' Away To Stay
TTITLE7=Crow Jane
TTITLE8=Devil Got My Woman
TTITLE9=She Lyin'
TTITLE10=Hard Time Killin' Floor Blues
TTITLE11=Drunken Spree
TTITLE12=Black Gal
TTITLE13=Illinois Blues
TTITLE14=Worried Blues
TTITLE15=Look Down The Road
EXTD=
EXTT0=
EXTT1=
EXTT2=
EXTT3=
EXTT4=
EXTT5=
EXTT6=
EXTT7=
EXTT8=
EXTT9=
EXTT10=
EXTT11=
EXTT12=
EXTT13=
EXTT14=
EXTT15=
PLAYORDER=
